<svg width="3612" height="1521" xmlns="http://www.w3.org/2000/svg" xmlns:xlink="http://www.w3.org/1999/xlink" xml:space="preserve" overflow="hidden"><g transform="translate(-461 -237)"><path d="M2640.5 1589.5 1399.5 1179 2640.5 768.5Z" stroke="#3468C0" stroke-width="6.875" stroke-miterlimit="8" fill="none" fill-rule="evenodd"/><path d="M2640.5 1589.5 605.5 1179 2640.5 768.5Z" stroke="#DB3124" stroke-width="6.875" stroke-miterlimit="8" fill="none" fill-rule="evenodd"/><path d="M2640.5 768.5 3380.5 1179 2640.5 1589.5Z" stroke="#3468C0" stroke-width="6.875" stroke-miterlimit="8" fill="none" fill-rule="evenodd"/><path d="M2640.5 768.5 3121.5 1179 2640.5 1589.5Z" stroke="#EA4335" stroke-width="6.875" stroke-miterlimit="8" fill="none" fill-rule="evenodd"/><path d="M0 0 0.000360892 662.618" stroke="#000000" stroke-width="6.875" stroke-miterlimit="8" stroke-dasharray="27.5 20.625" fill="none" fill-rule="evenodd" transform="matrix(1 0 0 -1 1399.5 1179.12)"/><path d="M0 0 0.000360892 911.428" stroke="#000000" stroke-width="6.875" stroke-miterlimit="8" stroke-dasharray="27.5 20.625" fill="none" fill-rule="evenodd" transform="matrix(1 0 0 -1 605.5 1178.93)"/><path d="M1440.75 592.062 2599.68 592.063 2599.68 598.938 1440.75 598.937ZM1445.33 609.25 1399.5 595.5 1445.33 581.75ZM2595.1 581.75 2640.93 595.5 2595.1 609.25Z"/><path d="M646.75 345.063 2599.26 345.063 2599.26 351.938 646.75 351.938ZM651.333 362.25 605.5 348.5 651.333 334.75ZM2594.67 334.75 2640.5 348.5 2594.67 362.25Z"/><path d="M2681.75 592.062 3080.17 592.063 3080.17 598.938 2681.75 598.937ZM2686.33 609.25 2640.5 595.5 2686.33 581.75ZM3075.59 581.75 3121.42 595.5 3075.59 609.25Z"/><path d="M2681.75 345.063 3339.13 345.063 3339.13 351.938 2681.75 351.938ZM2686.33 362.25 2640.5 348.5 2686.33 334.75ZM3334.54 334.75 3380.38 348.5 3334.54 362.25Z"/><path d="M0 0 0.000360892 911.428" stroke="#000000" stroke-width="6.875" stroke-miterlimit="8" stroke-dasharray="27.5 20.625" fill="none" fill-rule="evenodd" transform="matrix(1 0 0 -1 3380.5 1176.93)"/><rect x="1964" y="502" width="110" height="166" fill="#FFFFFF"/><text fill="#3468C0" font-family="Times New Roman,Times New Roman_MSFontService,sans-serif" font-style="italic" font-weight="700" font-size="110" transform="matrix(1 0 0 1 1997.27 624)">s</text><rect x="1549" y="264" width="147" height="167" fill="#FFFFFF"/><text fill="#DB3124" font-family="Times New Roman,Times New Roman_MSFontService,sans-serif" font-style="italic" font-weight="700" font-size="110" transform="matrix(1 0 0 1 1581.97 387)">D</text><rect x="2810" y="502" width="147" height="166" fill="#FFFFFF"/><text fill="#DB3124" font-family="Times New Roman,Times New Roman_MSFontService,sans-serif" font-style="italic" font-weight="700" font-size="110" transform="matrix(1 0 0 1 2843.27 624)">v'</text><rect x="2952" y="254" width="116" height="167" fill="#FFFFFF"/><text fill="#3468C0" font-family="Times New Roman,Times New Roman_MSFontService,sans-serif" font-style="italic" font-weight="700" font-size="110" transform="matrix(1 0 0 1 2985.03 377)">v</text><path d="M2640.5 768.5 4015.5 768.5" stroke="#000000" stroke-width="6.875" stroke-miterlimit="8" stroke-dasharray="27.5 20.625" fill="none" fill-rule="evenodd"/><path d="M2640.5 1589.5 4015.5 1589.5" stroke="#000000" stroke-width="6.875" stroke-miterlimit="8" stroke-dasharray="27.5 20.625" fill="none" fill-rule="evenodd"/><path d="M0 0 337.795 0.000360892" stroke="#000000" stroke-width="6.875" stroke-miterlimit="8" stroke-dasharray="27.5 20.625" fill="none" fill-rule="evenodd" transform="matrix(1 0 0 -1 3380.5 957.5)"/><path d="M3641.94 998.75 3641.94 1361.04 3635.06 1361.04 3635.06 998.75ZM3624.75 1003.33 3638.5 957.5 3652.25 1003.33ZM3652.25 1356.45 3638.5 1402.29 3624.75 1356.45Z"/><path d="M3895.94 809.75 3895.94 1548.32 3889.06 1548.32 3889.06 809.75ZM3878.75 814.333 3892.5 768.5 3906.25 814.333ZM3906.25 1543.74 3892.5 1589.57 3878.75 1543.74Z"/><rect x="3580" y="1090" width="124" height="167" fill="#FFFFFF"/><text fill="#DB3124" font-family="Times New Roman,Times New Roman_MSFontService,sans-serif" font-style="italic" font-weight="700" font-size="110" transform="matrix(1 0 0 1 3613.22 1213)">δ</text><rect x="3771" y="1075" width="271" height="166" fill="#FFFFFF"/><text font-family="Times New Roman,Times New Roman_MSFontService,sans-serif" font-style="italic" font-weight="700" font-size="110" transform="matrix(1 0 0 1 3804.4 1197)">f / N</text><path d="M0 0 337.795 0.000360892" stroke="#000000" stroke-width="6.875" stroke-miterlimit="8" stroke-dasharray="27.5 20.625" fill="none" fill-rule="evenodd" transform="matrix(1 0 0 -1 3380.5 1400.5)"/><path d="M3380.5 1399.5 3122.5 1179 3380.5 958.5Z" stroke="#EA4335" stroke-width="6.875" stroke-miterlimit="8" fill="none" fill-rule="evenodd"/><path d="M0 0 0.000360892 649.606" stroke="#000000" stroke-width="13.75" stroke-miterlimit="8" fill="none" fill-rule="evenodd" transform="matrix(1 0 0 -1 3380 1500.61)"/><path d="M0 0 0.000360892 662.618" stroke="#000000" stroke-width="6.875" stroke-miterlimit="8" stroke-dasharray="27.5 20.625" fill="none" fill-rule="evenodd" transform="matrix(1 0 0 -1 3122.5 1179.12)"/><path d="M2606.5 1179C2606.5 934.614 2621.72 736.5 2640.5 736.5 2659.28 736.5 2674.5 934.614 2674.5 1179 2674.5 1423.39 2659.28 1621.5 2640.5 1621.5 2621.72 1621.5 2606.5 1423.39 2606.5 1179Z" stroke="#0070C0" stroke-width="6.875" stroke-miterlimit="8" fill="#DAE3F3" fill-rule="evenodd"/><path d="M0 0 3017.14 0.000360892" stroke="#000000" stroke-width="6.875" stroke-miterlimit="8" stroke-dasharray="55 20.625 6.875 20.625" fill="none" fill-rule="evenodd" transform="matrix(1 0 0 -1 461.5 1179.5)"/><path d="M0 0 0.000360892 1492.34" stroke="#000000" stroke-width="6.875" stroke-miterlimit="8" stroke-dasharray="27.5 20.625" fill="none" fill-rule="evenodd" transform="matrix(1 0 0 -1 2640.5 1757.84)"/></g></svg>