<?xml version="1.0" encoding="utf-8"?>
<svg version="1.1" xmlns="http://www.w3.org/2000/svg" xmlns:xlink="http://www.w3.org/1999/xlink" viewBox="-0.0535 190.592 130.8535 130.8809">
<g>
	<path id="subwayLogo" d="M43.01,194.7c18.09-6.87,39.26-5.05,55.95,4.91c15.43,9.26,27.63,25.8,30.29,40.95
		c-6.73,0-8.41,0.28-15.15,0.28c-4.35-14.16-20.33-29.87-33.23-33.09c-16.97-3.65-30.71-1.12-42.49,7.29
		c-8.69,5.89-16.83,16.41-19.91,26.64c-4.49,13.04-0.84,31.69,6.73,43.19c5.89,8.55,16.41,16.69,26.36,19.91
		c9.82,3.09,25.66,0.14,35.34-3.23c13.6-4.91,23.56-17.39,27.91-31.13l-18.93,0.14c-0.84,6.31-1.82,8.41-5.75,15.71l-51.75-0.14
		v-60.44h51.61c6.17,7.71,7.15,20.05,7.29,30.43c0,0,20.75,0.14,33.52,0c-0.14,19.63-8.41,38.98-24.12,51.18
		c-11.36,8.97-25.66,14.16-40.25,14.16c-20.33,0.42-40.53-9.4-52.73-25.66c-7.85-9.96-11.92-22.3-13.6-34.64
		c-0.42-7.57,0.14-11.36,0.28-11.92c1.54-8.69,3.79-17.25,8.27-24.96C16.09,210.69,28.57,200.03,43.01,194.7 M52.83,239.3v33.94
		l25.1,0.14c5.61-6.59,5.33-10.66-0.28-16.69c5.75-5.89,6.03-12.2,0.14-17.25L52.83,239.3"/>
</g>
</svg>
